Coordinates
version=1
nRows=29
nColumns=24
inDegrees=yes

Units are S.I. units (second, meters, Newtons, ...)
Angles are in degrees.

endheader
time	pelvis_tilt	pelvis_list	pelvis_rotation	pelvis_tx	pelvis_ty	pelvis_tz	hip_flexion_r	hip_adduction_r	hip_rotation_r	knee_angle_r	ankle_angle_r	subtalar_angle_r	mtp_angle_r	hip_flexion_l	hip_adduction_l	hip_rotation_l	knee_angle_l	ankle_angle_l	subtalar_angle_l	mtp_angle_l	lumbar_extension	lumbar_bending	lumbar_rotation
      3.97500000	     -7.54821659	      2.88065778	     -8.16645696	     -2.37735738	     -0.02377401	      0.46108354	     -7.23486767	     -0.77423813	      9.66656570	    -11.21884261	      5.47654692	      0.51787517	      5.75847619	     28.86459123	     -1.93567802	     -0.76363006	     -4.75686707	     -7.14524325	     -0.54972921	     13.46972746	      6.93298610	     -2.25866910	     11.49406631
      3.98000000	     -7.58941924	      3.03501260	     -8.52696631	     -2.37044526	     -0.02419360	      0.46087026	     -7.29900944	     -1.07076048	      9.81217950	    -11.77600093	      5.32052076	      0.93044031	      6.07607056	     28.69747915	     -1.87914740	     -0.91929547	     -4.41460330	     -7.20582905	     -0.39677938	     13.35409402	      7.08417167	     -2.33695745	     11.73963175
      3.98500000	     -7.64470122	      3.18554494	     -8.85841033	     -2.36345337	     -0.02461541	      0.46060941	     -7.33675036	     -1.36005773	      9.94844816	    -12.35905541	      5.10529939	      1.31650695	      6.38990643	     28.56816440	     -1.80332104	     -1.03613740	     -4.23150327	     -7.23192831	     -0.22742900	     13.28484707	      7.25713080	     -2.41431081	     12.01018602
      3.99000000	     -7.70134429	      3.33510990	     -9.18288089	     -2.35641344	     -0.02502312	      0.46033052	     -7.34141717	     -1.64886728	     10.08154847	    -12.99625506	      4.86107793	      1.72824647	      6.76887589	     28.46480721	     -1.70991745	     -1.22418815	     -4.19856884	     -7.23537802	     -0.04761937	     13.23896426	      7.43305931	     -2.49339853	     12.24491864
      3.99500000	     -7.76272314	      3.47379245	     -9.46529450	     -2.34928658	     -0.02543693	      0.45996166	     -7.32840666	     -1.92493518	     10.17624036	    -13.66347864	      4.55934338	      2.12382522	      7.17879122	     28.38861847	     -1.59371167	     -1.37879777	     -4.31365997	     -7.19948900	      0.15838704	     13.23779554	      7.61798342	     -2.56371317	     12.46461020
      4.00000000	     -7.82898695	      3.59965813	     -9.71363196	     -2.34210606	     -0.02585782	      0.45955109	     -7.29162380	     -2.18209215	     10.24507849	    -14.36901400	      4.19835959	      2.50746860	      7.62482211	     28.34082965	     -1.46355905	     -1.52997043	     -4.56578191	     -7.16477984	      0.36882483	     13.26922572	      7.80642508	     -2.62919944	     12.67491079
      4.00500000	     -7.91576633	      3.72676779	     -9.93640002	     -2.33480257	     -0.02630223	      0.45909050	     -7.22095965	     -2.44046656	     10.32206904	    -15.09609765	      3.79519019	      2.91427524	      8.19897620	     28.31827874	     -1.31518380	     -1.67716433	     -4.91969289	     -7.10691958	      0.63803328	     13.34207657	      8.03180889	     -2.69315785	     12.82705911
      4.01000000	     -7.99661673	      3.83119558	    -10.11266986	     -2.32750000	     -0.02673674	      0.45854828	     -7.12728203	     -2.66652831	     10.33945417	    -15.87966335	      3.30245910	      3.26460070	      8.77111772	     28.30799881	     -1.15690436	     -1.78066101	     -5.37389940	     -7.12704129	      0.88873722	     13.44053507	      8.23532096	     -2.74381587	     12.99975668
      4.01500000	     -8.08041429	      3.93175153	    -10.24853556	     -2.32013457	     -0.02718542	      0.45794834	     -7.00528156	     -2.88225065	     10.31297201	    -16.71069470	      2.74372536	      3.58896491	      9.39689094	     28.30693234	     -0.97788181	     -1.86466826	     -5.89460102	     -7.21134334	      1.12332168	     13.58049239	      8.44413555	     -2.79954213	     13.13580223
      4.02000000	     -8.16709158	      4.03411905	    -10.35191861	     -2.31272877	     -0.02761546	      0.45727212	     -6.85195717	     -3.09969811	     10.24918931	    -17.58452359	      2.11846312	      3.93618339	     10.05605183	     28.30416693	     -0.77929124	     -1.92803903	     -6.44075978	     -7.43061756	      1.35356333	     13.74658898	      8.65531567	     -2.85571937	     13.26649228
      4.02500000	     -8.25423383	      4.14392364	    -10.41140621	     -2.30529499	     -0.02803847	      0.45654394	     -6.65866118	     -3.31847447	     10.12100784	    -18.52224228	      1.41665452	      4.27388934	     10.77088451	     28.30330048	     -0.55478721	     -1.98785662	     -7.00103676	     -7.77517319	      1.57276369	     13.94123109	      8.86554804	     -2.93369726	     13.36304822
      4.03000000	     -8.34117065	      4.27022557	    -10.43322057	     -2.29785697	     -0.02843194	      0.45574930	     -6.42376618	     -3.55339465	      9.93551956	    -19.51444379	      0.63530476	      4.61728984	     11.54415727	     28.30370111	     -0.30209429	     -2.05392170	     -7.55542189	     -8.27446269	      1.78696805	     14.14405644	      9.07512748	     -3.03585755	     13.43950134
      4.03500000	     -8.42494118	      4.42020563	    -10.41480103	     -2.29042718	     -0.02878509	      0.45489001	     -6.14530476	     -3.81221210	      9.69132194	    -20.56613745	     -0.23663965	      4.95931567	     12.37220591	     28.30576715	     -0.01581754	     -2.13202133	     -8.09398276	     -8.91975599	      1.99286920	     14.33426340	      9.27931759	     -3.17074620	     13.48820428
      4.04000000	     -8.50992781	      4.58239609	    -10.39028723	     -2.28304525	     -0.02909860	      0.45398729	     -5.79332335	     -4.08765608	      9.40054922	    -21.70067446	     -1.22540689	      5.29619797	     13.39337301	     28.30569453	      0.27481161	     -2.20656528	     -8.59930922	     -9.67033452	      2.13492566	     14.52351942	      9.47844010	     -3.31554591	     13.47280493
      4.04500000	     -8.58649747	      4.73726307	    -10.30065591	     -2.27575826	     -0.02931828	      0.45297418	     -5.41958796	     -4.35541286	      9.06739686	    -22.85070224	     -2.37039513	      5.61231342	     14.56779278	     28.33381757	      0.58159470	     -2.27365564	     -9.13602178	    -10.55266318	      2.20790639	     14.63945659	      9.64198207	     -3.46627864	     13.48183980
      4.05000000	     -8.65446966	      4.96204504	    -10.17961657	     -2.26842524	     -0.02947672	      0.45196593	     -4.99623407	     -4.69431488	      8.68307717	    -24.07085261	     -3.63532700	      5.88407000	     15.70276828	     28.36413045	      0.96022347	     -2.34882894	     -9.67579704	    -11.42012822	      2.24983953	     14.59418302	      9.81785294	     -3.70164989	     13.45835562
      4.05500000	     -8.72367792	      5.21653563	    -10.03933211	     -2.26107937	     -0.02958006	      0.45093600	     -4.51462450	     -5.06463800	      8.27707678	    -25.35166866	     -5.05180340	      6.12915273	     16.86609235	     28.41301058	      1.37186824	     -2.40289915	    -10.25204216	    -12.20930672	      2.19818438	     14.34893442	     10.00018178	     -3.96975849	     13.40036143
      4.06000000	     -8.78448010	      5.45409329	     -9.85938710	     -2.25388603	     -0.02963500	      0.44986243	     -3.98832273	     -5.40755989	      7.87592019	    -26.68129027	     -6.62790820	      6.26201304	     18.20113751	     28.50265244	      1.78601669	     -2.36334216	    -10.93183238	    -12.90374390	      2.01262285	     13.83907131	     10.13818086	     -4.23542036	     13.35277608
      4.06500000	     -8.83466806	      5.70464068	     -9.67135038	     -2.24666992	     -0.02964987	      0.44879615	     -3.42275572	     -5.75905995	      7.49317707	    -28.06350586	     -8.37176498	      6.30810078	     19.51853952	     28.59412665	      2.22225788	     -2.28330147	    -11.67218586	    -13.38824996	      1.73666882	     13.09324400	     10.26864950	     -4.51351181	     13.27571536
      4.07000000	     -8.87645674	      5.93903492	     -9.46889510	     -2.23950671	     -0.02964254	      0.44773639	     -2.81694663	     -6.08112772	      7.14614584	    -29.49884785	    -10.26250146	      6.26149841	     20.82895030	     28.69919269	      2.65640321	     -2.14406575	    -12.49445239	    -13.64857877	      1.38716198	     12.13275647	     10.37530986	     -4.77968137	     13.19351831
      4.07500000	     -8.90495064	      6.15646842	     -9.25918861	     -2.23239081	     -0.02963762	      0.44672310	     -2.17272402	     -6.36906294	      6.83307229	    -30.99818896	    -12.27250737	      6.11627757	     22.07131044	     28.80294994	      3.08460435	     -1.97326863	    -13.38146021	    -13.65292371	      1.00344764	     11.06488955	     10.45273505	     -5.04172463	     13.10282401
      4.08000000	     -8.92515573	      6.36357937	     -9.04792596	     -2.22532662	     -0.02964812	      0.44573118	     -1.48001961	     -6.62962937	      6.56561076	    -32.56945463	    -14.37041835	      5.87001090	     23.20923207	     28.89916009	      3.51290307	     -1.76768355	    -14.30542853	    -13.42877385	      0.62249878	      9.97930360	     10.50986075	     -5.29107371	     13.00634462
      4.08500000	     -8.93321076	      6.56327292	     -8.83322462	     -2.21835584	     -0.02969612	      0.44476403	     -0.73748490	     -6.86508266	      6.33079330	    -34.22362289	    -16.50119431	      5.51392541	     24.22960805	     28.98276452	      3.94421047	     -1.54633992	    -15.25408817	    -12.99280243	      0.29423676	      8.95693524	     10.53460786	     -5.53306777	     12.88626915
      4.09000000	     -8.93010261	      6.78019254	     -8.59008976	     -2.21145651	     -0.02978868	      0.44384126	      0.04604731	     -7.10802930	      6.08310651	    -35.94023098	    -18.61830345	      5.07962166	     25.25930098	     29.06334790	      4.40235322	     -1.38594748	    -16.23795921	    -12.30638413	      0.17742265	      7.96310726	     10.53413346	     -5.81271627	     12.72500348
      4.09500000	     -8.90296201	      6.99075232	     -8.41336086	     -2.20464186	     -0.02986393	      0.44303022	      0.88925407	     -7.31846868	      5.91463662	    -37.78721520	    -20.71787375	      4.49361898	     25.55420212	     29.04183584	      4.84500073	     -1.10342280	    -17.07279833	    -11.74773897	     -0.19440961	      7.42320433	     10.50589554	     -6.07020053	     12.64705067
      4.10000000	     -8.91188127	      7.22978783	     -8.18827686	     -2.19793258	     -0.03004595	      0.44219933	      1.82641271	     -7.55093663	      5.68220691	    -39.69977659	    -22.73711926	      3.72018401	     25.83360829	     29.05712465	      5.32934557	     -0.85178449	    -17.90593588	    -11.03737737	     -0.39149059	      6.90243802	     10.49846346	     -6.36093753	     12.50006299
      4.10500000	     -8.89631041	      7.51677640	     -7.96691995	     -2.19132389	     -0.03023961	      0.44142739	      2.79890571	     -7.83224197	      5.44246273	    -41.68191158	    -24.62322091	      2.77036513	     25.83335367	     29.01336506	      5.85898959	     -0.64162449	    -18.65894751	    -10.31633462	     -0.51746979	      6.53486432	     10.46030232	     -6.71028649	     12.35424053
      4.11000000	     -8.89712675	      7.83527265	     -7.74340738	     -2.18474713	     -0.03048414	      0.44065626	      3.83500581	     -8.15215344	      5.16595934	    -43.70947720	    -26.35365968	      1.58243226	     25.55623553	     28.93153549	      6.42188606	     -0.41591907	    -19.30925181	     -9.54210322	     -0.59953277	      6.25483114	     10.44359545	     -7.07952852	     12.20819270
      4.11500000	     -8.88845327	      8.19285875	     -7.51834275	     -2.17828718	     -0.03072002	      0.43991802	      4.90382783	     -8.51242618	      4.89122463	    -45.77005532	    -27.88631121	      0.13555045	     24.96713857	     28.79961366	      7.02239296	     -0.21451291	    -19.85905970	     -8.84342199	     -0.67992327	      6.06690391	     10.40744399	     -7.49134417	     12.04328440
